<?xml version="1.0" standalone="no"?>
<!DOCTYPE svg PUBLIC "-//W3C//DTD SVG 20010904//EN"
 "http://www.w3.org/TR/2001/REC-SVG-20010904/DTD/svg10.dtd">
<svg version="1.0" xmlns="http://www.w3.org/2000/svg"
 width="700.000000pt" height="700.000000pt" viewBox="0 0 700.000000 700.000000"
 preserveAspectRatio="xMidYMid meet">
<metadata>
Created by potrace 1.14, written by Peter Selinger 2001-2017
</metadata>
<g transform="translate(0.000000,700.000000) scale(0.100000,-0.100000)"
fill="#000000" stroke="none">
<path d="M3377 6854 c-1 -1 -49 -4 -107 -8 -58 -3 -121 -8 -140 -11 -19 -2
-57 -7 -85 -10 -101 -12 -357 -66 -488 -105 -454 -133 -875 -361 -1242 -673
-95 -81 -305 -294 -388 -394 -101 -120 -220 -287 -302 -423 -59 -97 -205 -379
-205 -394 0 -4 -9 -25 -19 -49 -100 -221 -194 -577 -235 -892 -24 -182 -25
-629 -2 -765 2 -14 7 -47 10 -75 25 -224 110 -551 207 -793 51 -129 175 -384
209 -432 11 -16 20 -31 20 -34 0 -3 13 -27 30 -53 96 -153 223 -325 330 -448
66 -75 275 -282 350 -346 67 -58 275 -215 325 -246 374 -233 656 -358 1015
-452 93 -24 269 -61 312 -65 33 -4 112 -14 158 -22 137 -22 631 -22 745 0 11
2 43 7 70 10 96 13 121 17 241 42 199 40 459 120 601 185 24 10 45 19 49 19
11 0 298 146 341 173 24 15 45 27 48 27 3 0 11 5 18 10 7 6 66 46 132 89 168
112 317 234 476 391 164 162 300 321 379 440 8 13 24 35 36 49 36 44 168 270
228 388 56 112 156 339 156 356 0 5 6 23 14 40 30 69 113 371 130 472 27 162
36 219 41 270 37 381 19 746 -54 1080 -73 333 -158 559 -347 925 -54 106 -261
410 -325 481 -13 14 -42 47 -63 75 -69 85 -327 336 -441 427 -424 340 -957
589 -1460 681 -16 3 -43 8 -60 12 -16 3 -43 7 -60 9 -30 3 -115 15 -148 21
-57 10 -490 26 -500 18z m19 -907 c2 -75 18 -108 62 -130 44 -23 105 -6 132
36 7 12 14 49 16 82 1 33 3 65 3 72 1 8 19 10 59 7 59 -4 106 -9 247 -29 133
-18 399 -93 540 -152 82 -34 281 -134 336 -168 341 -214 600 -461 807 -770 88
-132 186 -316 232 -437 11 -29 25 -62 30 -73 16 -36 69 -209 89 -290 17 -70
24 -107 46 -240 20 -119 27 -472 12 -609 -21 -197 -61 -380 -121 -553 -64
-187 -139 -353 -159 -353 -8 0 -35 11 -60 25 -59 34 -82 37 -122 20 -41 -16
-65 -60 -60 -105 5 -41 25 -63 91 -102 l51 -31 -52 -75 c-187 -263 -392 -469
-637 -640 -62 -43 -89 -57 -96 -49 -5 7 -21 33 -36 59 -37 65 -80 86 -139 66
-70 -25 -84 -105 -33 -186 14 -23 26 -46 26 -51 0 -12 -142 -80 -266 -126
-155 -59 -349 -111 -479 -130 -125 -19 -238 -31 -281 -30 -28 0 -28 1 -30 60
-1 74 -8 96 -38 124 -31 29 -98 31 -127 5 -34 -31 -43 -56 -44 -124 l0 -65
-30 0 c-29 1 -166 13 -215 20 -182 24 -406 84 -585 155 -80 32 -218 96 -227
106 -4 3 6 27 22 52 16 26 31 59 35 73 8 32 -16 94 -43 108 -66 35 -123 12
-168 -68 -16 -28 -33 -51 -37 -51 -32 0 -289 202 -412 325 -133 132 -189 199
-328 392 l-37 51 53 31 c76 43 92 64 91 118 -1 54 -33 91 -86 99 -28 5 -47 0
-91 -25 -31 -17 -61 -31 -66 -31 -23 0 -144 294 -195 472 -27 95 -51 206 -62
283 -3 28 -8 52 -9 55 -4 7 -18 161 -19 210 l-1 35 55 1 c30 1 63 2 72 3 26 2
67 43 77 76 11 40 -11 97 -44 115 -13 7 -52 14 -87 16 -35 1 -66 3 -70 3 -7 1
-1 103 12 206 37 271 109 521 226 772 l38 82 61 -35 c74 -41 113 -43 154 -8
65 55 48 131 -44 186 -30 18 -55 37 -55 43 0 14 98 152 174 245 123 150 405
412 497 461 13 6 26 15 29 19 3 3 21 16 40 27 l35 22 29 -55 c35 -66 65 -88
119 -88 32 0 45 7 68 32 38 42 37 82 -1 151 -17 30 -30 58 -30 62 0 8 29 23
176 89 181 82 509 166 724 185 41 4 76 8 77 9 2 1 19 2 40 1 l37 -1 2 -67z"/>
<path d="M3438 5577 c-14 -12 -30 -31 -35 -42 -5 -12 -9 -448 -9 -1040 1 -933
2 -1023 18 -1046 9 -14 76 -60 150 -101 73 -42 149 -85 168 -97 19 -11 51 -28
70 -39 33 -18 314 -177 1020 -577 173 -98 328 -183 346 -188 93 -29 167 100
97 168 -16 15 -167 106 -338 202 -321 181 -350 198 -450 255 -33 19 -67 37
-75 41 -8 4 -31 17 -50 28 -54 33 -672 381 -702 397 -15 7 -31 19 -35 25 -4 7
-8 446 -9 977 -1 531 -2 973 -3 982 0 9 -15 30 -32 47 -38 39 -91 42 -131 8z"/>
</g>
</svg>
